<svg width="65" height="25" viewBox="0 0 65 25" fill="none" xmlns="http://www.w3.org/2000/svg">
<path d="M24.6399 12.3099C24.6399 14.7446 23.918 17.1246 22.5653 19.149C21.2127 21.1733 19.2901 22.7511 17.0408 23.6829C14.7914 24.6146 12.3163 24.8583 9.92842 24.3834C7.54053 23.9084 5.3471 22.736 3.62553 21.0144C1.90395 19.2928 0.731539 17.0994 0.256557 14.7115C-0.218425 12.3236 0.0253533 9.84848 0.957064 7.59914C1.88877 5.34979 3.46657 3.42724 5.49093 2.0746C7.51529 0.721966 9.8953 0 12.33 0C13.9465 0 15.5473 0.318406 17.0408 0.937039C18.5343 1.55567 19.8913 2.46242 21.0344 3.6055C22.1775 4.74858 23.0843 6.10562 23.7029 7.59914C24.3215 9.09265 24.6399 10.6934 24.6399 12.3099Z" fill="white"/>
<path d="M40.0507 21.5109H33.2563C33.0603 21.511 32.8664 21.4717 32.6859 21.3952C32.5054 21.3188 32.3422 21.2069 32.2059 21.066C32.0696 20.9252 31.9631 20.7584 31.8926 20.5756C31.8221 20.3927 31.7891 20.1975 31.7956 20.0017V4.65516C31.7931 4.46294 31.8293 4.27218 31.9019 4.09418C31.9745 3.91618 32.0821 3.75457 32.2183 3.61893C32.3545 3.48328 32.5166 3.37635 32.6949 3.30448C32.8732 3.2326 33.0641 3.19725 33.2563 3.20051H39.6083C43.0994 3.20051 45.1905 5.23096 45.1905 7.8675C45.1905 10.5041 43.5601 11.5041 42.9903 11.692C43.8692 11.9163 46.2633 12.9042 46.2633 16.2681C46.2633 19.1289 43.954 21.5109 40.0507 21.5109ZM39.481 5.89161H34.7413V10.5101H39.481C41.3599 10.5101 42.2448 9.46761 42.2448 8.20086C42.2448 6.9341 41.4145 5.89161 39.481 5.89161ZM40.1538 13.1648H34.7413V18.7895H40.1538C42.3236 18.7895 43.3176 17.3833 43.3176 15.9832C43.3176 14.5831 42.3357 13.177 40.1538 13.177V13.1648ZM54.7002 21.4988H50.2211C50.024 21.503 49.828 21.467 49.6451 21.3931C49.4623 21.3192 49.2963 21.2089 49.1574 21.0688C49.0185 20.9288 48.9096 20.762 48.8372 20.5785C48.7647 20.3951 48.7304 20.1988 48.7362 20.0017V4.65516C48.7361 4.46155 48.7747 4.26989 48.8497 4.0914C48.9247 3.91291 49.0346 3.75118 49.1729 3.6157C49.3112 3.48022 49.4752 3.37371 49.6552 3.30242C49.8352 3.23112 50.0276 3.19648 50.2211 3.20051H54.7305C60.8401 3.20051 64.2464 7.27352 64.2464 12.3527C64.2464 17.4318 60.8037 21.5109 54.7305 21.5109L54.7002 21.4988ZM54.5487 5.89161H51.7061V18.7895H54.5487C58.8763 18.7895 61.2886 16.2317 61.2886 12.3284C61.2886 8.42512 58.9066 5.89161 54.5487 5.89161Z" fill="#044ED7"/>
<path d="M7.05504 11.6983L0.121226 14.0682C0.041035 13.4979 0.000530755 12.9227 5.30571e-06 12.3468C-0.00161115 10.6104 0.366148 8.89352 1.07887 7.31011L7.07929 11.5528C7.11565 11.5831 7.13384 11.6074 7.13384 11.6316C7.13384 11.6559 7.09747 11.6983 7.05504 11.7104V11.6983ZM12.2312 0.0732422C9.904 0.075904 7.62624 0.744721 5.66707 2.00065L10.7038 7.33436C10.7401 7.37072 10.7644 7.38891 10.7947 7.38891C10.825 7.38891 10.8553 7.38891 10.8674 7.31011C10.9099 6.97069 12.2312 0.0732422 12.2312 0.0732422ZM8.36422 8.92235C8.36848 8.90237 8.36848 8.88171 8.36422 8.86174L5.58827 2.04914C3.64012 3.31685 2.0896 5.10898 1.11523 7.2192L8.23694 8.98296H8.29755C8.30601 8.98381 8.31454 8.98287 8.32261 8.98021C8.33068 8.97754 8.3381 8.97321 8.34439 8.9675C8.35067 8.96178 8.35569 8.95481 8.35911 8.94703C8.36252 8.93925 8.36427 8.93084 8.36422 8.92235ZM17.4921 11.6983L24.432 14.0682C24.5102 13.4977 24.5487 12.9226 24.5472 12.3468C24.5507 10.6109 24.185 8.89398 23.4744 7.31011L17.4679 11.5528C17.4315 11.5831 17.4133 11.6074 17.4133 11.6316C17.4133 11.6559 17.4558 11.6862 17.4921 11.6983ZM13.6797 7.31011C13.6797 7.37072 13.7282 7.38891 13.7585 7.38891C13.7888 7.38891 13.8131 7.38891 13.8434 7.33436L18.8862 2.00065C16.9263 0.746272 14.649 0.0775909 12.3221 0.0732422C12.3221 0.0732422 13.6191 6.97069 13.6797 7.31011ZM16.2496 8.98902H16.3102L23.4319 7.22526C22.4576 5.11504 20.9071 3.32291 18.9589 2.0552C18.9589 2.0552 16.2133 8.83749 16.1951 8.8678C16.1939 8.88798 16.1939 8.90822 16.1951 8.92841C16.195 8.94348 16.2005 8.95805 16.2106 8.96926C16.2207 8.98046 16.2346 8.98751 16.2496 8.98902Z" fill="#FF6E00"/>
<path d="M12.2743 24.6197C15.2073 24.6142 18.0416 23.5596 20.2648 21.6465C22.4881 19.7334 23.9535 17.0881 24.3963 14.1886L19.8202 14.8311C19.7926 14.8308 19.7658 14.8404 19.7446 14.8582C19.7235 14.876 19.7094 14.9008 19.7051 14.9281C19.2478 16.2467 18.4485 17.4203 17.3889 18.3287C16.3293 19.2371 15.0474 19.8477 13.6744 20.0981C14.334 19.7773 14.8654 19.2423 15.1817 18.5805C15.498 17.9187 15.5806 17.1692 15.416 16.4544C15.2514 15.7396 14.8493 15.1017 14.2754 14.6449C13.7014 14.1882 12.9896 13.9395 12.2561 13.9395C11.5226 13.9395 10.8107 14.1882 10.2368 14.6449C9.66285 15.1017 9.26075 15.7396 9.09613 16.4544C8.93152 17.1692 9.01412 17.9187 9.33046 18.5805C9.64679 19.2423 10.1782 19.7773 10.8378 20.0981C9.47244 19.8409 8.1994 19.2271 7.14774 18.3192C6.09608 17.4112 5.3032 16.2413 4.8495 14.9281C4.84404 14.9013 4.8297 14.8772 4.8088 14.8595C4.78789 14.8419 4.76165 14.8319 4.73434 14.8311L0.140076 14.1886C0.581673 17.0886 2.04679 19.7347 4.27029 21.648C6.49379 23.5613 9.32876 24.6155 12.2621 24.6197" fill="#FF6E00"/>
</svg>
